<?xml version="1.0" encoding="UTF-8"?>
<svg width="32.544mm" height="10.068mm" version="1.1" viewBox="0 0 32.544 10.068" xml:space="preserve" xmlns="http://www.w3.org/2000/svg" xmlns:xlink="http://www.w3.org/1999/xlink"><defs><linearGradient id="linearGradient6289" x1="93.9" x2="93.9" y1="170.85" y2="213.13" gradientUnits="userSpaceOnUse" xlink:href="#linearGradient6287"/><linearGradient id="linearGradient6287"><stop stop-color="#8385b2" offset="0"/><stop stop-color="#4a4e8e" offset=".41961"/><stop stop-color="#2e3483" offset=".41961"/><stop stop-color="#323d8e" offset="1"/></linearGradient></defs><g transform="translate(-13.884 -101.78)"><g transform="matrix(.2381 0 0 .2381 -8.4732 61.105)" fill="#fff" stroke="url(#linearGradient6289)" stroke-miterlimit="1.6" stroke-width="6.615" style="paint-order:markers stroke fill" aria-label="NewTude"><path d="m109.8 209.46-7.6729-21.802v21.802h-4.9213v-35.295h5.3446l7.2496 20.955v-20.955h4.9212v35.295z"/><path d="m123.72 197.18v4.6567q0 3.6513 2.3283 3.6513 2.2225 0 2.2754-2.9633v-1.3229l0.0529-0.84666h4.8154v1.2171q0 2.1696-0.26459 3.2808-0.26458 1.1112-0.9525 2.1167-0.9525 1.3758-2.4871 2.1167-1.5346 0.74084-3.2808 0.74084-1.6933 0-3.2808-0.74084-1.5346-0.74083-2.4342-1.9579-0.84667-1.1112-1.2171-2.54-0.3175-1.4288-0.3175-3.7042v-9.1546q0-2.3283 0.3175-3.7042 0.37042-1.4288 1.1642-2.54 0.89959-1.2171 2.4342-1.9579 1.5346-0.74084 3.2279-0.74084t3.175 0.74084q1.4817 0.68791 2.4342 1.9579 0.79375 1.1112 1.1112 2.54 0.37042 1.3758 0.37042 3.7042v5.4504zm4.7096-6.4029q0-1.905-0.58208-2.7517-0.52917-0.89959-1.7462-0.89959-2.3812 0-2.3812 3.6512v2.4342h4.7096z"/><path d="m150.28 209.46-2.7517-15.028-2.5929 15.028h-4.1804l-4.8154-26.3h4.4979l2.54 15.346 2.6458-15.346h3.7571l2.8575 14.975 2.4342-14.975h4.3392l-4.4979 26.3z"/><path d="m171.13 209.46h-5.2917v-30.374h-5.6092v-4.9212h16.616v4.9212h-5.715z"/><path d="m191.24 209.46h-4.7625v-2.8575q-0.84667 0.89958-1.5346 1.5346-0.68791 0.635-1.3229 1.0054-0.63501 0.37042-1.27 0.52917t-1.3229 0.15875q-1.7462 0-2.6458-1.2171-0.52916-0.74083-0.68791-1.6933t-0.15875-3.2808v-20.479h4.7625v19.368q0 1.1642 0 1.5346 0.0529 0.37041 0.15875 0.635 0.15875 0.79375 1.0054 0.79375 1.4288 0 3.0162-2.2225v-20.108h4.7625z"/><path d="m209.13 174.16v35.295h-4.7625v-2.54c-0.88193 1.0583-1.6933 1.8168-2.4342 2.2754-0.7408 0.42333-1.5698 0.635-2.4871 0.635-1.5875 0-2.734-0.70557-3.4396-2.1167-0.17639-0.35278-0.3175-0.70555-0.42333-1.0583-0.10583-0.35277-0.19403-0.75847-0.26459-1.2171-0.0705-0.45861-0.12347-0.98778-0.15875-1.5875v-15.028c0.0353-0.635 0.0882-1.1818 0.15875-1.6404 0.0706-0.45861 0.15876-0.86431 0.26459-1.2171 0.10583-0.35278 0.24694-0.70555 0.42333-1.0583 0.70553-1.4111 1.8521-2.1167 3.4396-2.1167 0.36124 0 0.7088 0.0356 1.0427 0.10671 0.51387 0.10948 0.99534 0.30322 1.4444 0.58121 0.7408 0.42333 1.5522 1.1642 2.4342 2.2225v-11.536zm-4.7625 14.129c-0.8114-0.77613-1.6051-1.1642-2.3812-1.1642-0.84667 0-1.4111 0.3175-1.6933 0.9525-0.17639 0.28223-0.28222 0.61736-0.3175 1.0054-0.0353 0.35278-0.0529 0.98778-0.0529 1.905v10.636c0 0.9172 0.0176 1.5522 0.0529 1.905s0.1411 0.68793 0.3175 1.0054c0.28223 0.635 0.84666 0.9525 1.6933 0.9525 0.77613 0 1.5699-0.38807 2.3812-1.1642z"/><path d="m217.8 197.18v4.6567q0 3.6513 2.3283 3.6513 2.2225 0 2.2754-2.9633v-1.3229l0.0529-0.84666h4.8154v1.2171q0 2.1696-0.26458 3.2808t-0.9525 2.1167q-0.9525 1.3758-2.4871 2.1167-1.5346 0.74084-3.2808 0.74084-1.6933 0-3.2808-0.74084-1.5346-0.74083-2.4342-1.9579-0.84667-1.1112-1.2171-2.54-0.3175-1.4288-0.3175-3.7042v-9.1546q0-2.3283 0.3175-3.7042 0.37042-1.4288 1.1642-2.54 0.89958-1.2171 2.4342-1.9579 1.5346-0.74084 3.2279-0.74084t3.175 0.74084q1.4817 0.68791 2.4342 1.9579 0.79375 1.1112 1.1112 2.54 0.37041 1.3758 0.37041 3.7042v5.4504zm4.7096-6.4029q0-1.905-0.58208-2.7517-0.52917-0.89959-1.7462-0.89959-2.3812 0-2.3812 3.6512v2.4342h4.7096z"/></g></g></svg>
