<?xml version="1.0" encoding="UTF-8" standalone="no"?>
<!-- Created with Inkscape (http://www.inkscape.org/) -->

<svg
   width="32.543751mm"
   height="16.668751mm"
   viewBox="0 0 32.543751 16.668751"
   version="1.1"
   id="svg23265"
   xml:space="preserve"
   sodipodi:docname="logo.svg"
   inkscape:version="1.2.1 (9c6d41e410, 2022-07-14)"
   inkscape:export-filename="..\PNG\logo.png"
   inkscape:export-xdpi="1024"
   inkscape:export-ydpi="1024"
   xmlns:inkscape="http://www.inkscape.org/namespaces/inkscape"
   xmlns:sodipodi="http://sodipodi.sourceforge.net/DTD/sodipodi-0.dtd"
   xmlns:xlink="http://www.w3.org/1999/xlink"
   xmlns="http://www.w3.org/2000/svg"
   xmlns:svg="http://www.w3.org/2000/svg"><sodipodi:namedview
     id="namedview23267"
     pagecolor="#ffffff"
     bordercolor="#000000"
     borderopacity="0.25"
     inkscape:showpageshadow="2"
     inkscape:pageopacity="0.0"
     inkscape:pagecheckerboard="0"
     inkscape:deskcolor="#d1d1d1"
     inkscape:document-units="mm"
     showgrid="false"
     inkscape:zoom="6.0364198"
     inkscape:cx="75.458635"
     inkscape:cy="33.297883"
     inkscape:window-width="1920"
     inkscape:window-height="1027"
     inkscape:window-x="-8"
     inkscape:window-y="-8"
     inkscape:window-maximized="1"
     inkscape:current-layer="layer1" /><defs
     id="defs23262"><linearGradient
       inkscape:collect="always"
       xlink:href="#linearGradient6287"
       id="linearGradient6289"
       x1="93.900002"
       y1="170.85001"
       x2="93.900002"
       y2="213.131"
       gradientUnits="userSpaceOnUse" /><linearGradient
       inkscape:collect="always"
       id="linearGradient6287"><stop
         style="stop-color:#8385b2;stop-opacity:1;"
         offset="0"
         id="stop6283" /><stop
         style="stop-color:#4a4e8e;stop-opacity:1;"
         offset="0.41961414"
         id="stop17277" /><stop
         style="stop-color:#2e3483;stop-opacity:1;"
         offset="0.41961414"
         id="stop18731" /><stop
         style="stop-color:#323d8e;stop-opacity:1;"
         offset="1"
         id="stop6285" /></linearGradient><linearGradient
       inkscape:collect="always"
       xlink:href="#linearGradient6287"
       id="linearGradient26124"
       gradientUnits="userSpaceOnUse"
       x1="93.900002"
       y1="170.85001"
       x2="93.900002"
       y2="213.131" /><linearGradient
       inkscape:collect="always"
       xlink:href="#linearGradient6287"
       id="linearGradient26126"
       gradientUnits="userSpaceOnUse"
       x1="93.900002"
       y1="170.85001"
       x2="93.900002"
       y2="213.131" /><linearGradient
       inkscape:collect="always"
       xlink:href="#linearGradient6287"
       id="linearGradient26128"
       gradientUnits="userSpaceOnUse"
       x1="93.900002"
       y1="170.85001"
       x2="93.900002"
       y2="213.131" /><linearGradient
       inkscape:collect="always"
       xlink:href="#linearGradient6287"
       id="linearGradient26130"
       gradientUnits="userSpaceOnUse"
       x1="93.900002"
       y1="170.85001"
       x2="93.900002"
       y2="213.131" /><linearGradient
       inkscape:collect="always"
       xlink:href="#linearGradient6287"
       id="linearGradient26132"
       gradientUnits="userSpaceOnUse"
       x1="93.900002"
       y1="170.85001"
       x2="93.900002"
       y2="213.131" /><linearGradient
       inkscape:collect="always"
       xlink:href="#linearGradient6287"
       id="linearGradient26134"
       gradientUnits="userSpaceOnUse"
       x1="93.900002"
       y1="170.85001"
       x2="93.900002"
       y2="213.131" /><linearGradient
       inkscape:collect="always"
       xlink:href="#linearGradient6287"
       id="linearGradient26136"
       gradientUnits="userSpaceOnUse"
       x1="93.900002"
       y1="170.85001"
       x2="93.900002"
       y2="213.131" /></defs><g
     inkscape:label="Layer 1"
     inkscape:groupmode="layer"
     id="layer1"
     transform="translate(-13.883968,-100.01627)"><g
       fill="#ffffff"
       stroke="url(#linearGradient87453)"
       stroke-miterlimit="1.6"
       stroke-width="6.615"
       style="stroke:url(#linearGradient6289);stroke-opacity:1;paint-order:markers stroke fill"
       aria-label="NewTude"
       id="g27"
       transform="matrix(0.23809963,0,0,0.23809963,-8.473182,61.104948)"><path
         d="m 109.8,209.46 -7.6729,-21.802 v 21.802 h -4.9213 v -35.295 h 5.3446 L 109.8,195.12 v -20.955 h 4.9212 v 35.295 z"
         id="path13"
         style="stroke:url(#linearGradient26124);stroke-opacity:1" /><path
         d="m 123.72,197.18 v 4.6567 q 0,3.6513 2.3283,3.6513 2.2225,0 2.2754,-2.9633 v -1.3229 l 0.0529,-0.84666 h 4.8154 v 1.2171 q 0,2.1696 -0.26459,3.2808 -0.26458,1.1112 -0.9525,2.1167 -0.9525,1.3758 -2.4871,2.1167 -1.5346,0.74084 -3.2808,0.74084 -1.6933,0 -3.2808,-0.74084 -1.5346,-0.74083 -2.4342,-1.9579 -0.84667,-1.1112 -1.2171,-2.54 -0.3175,-1.4288 -0.3175,-3.7042 v -9.1546 q 0,-2.3283 0.3175,-3.7042 0.37042,-1.4288 1.1642,-2.54 0.89959,-1.2171 2.4342,-1.9579 1.5346,-0.74084 3.2279,-0.74084 1.6933,0 3.175,0.74084 1.4817,0.68791 2.4342,1.9579 0.79375,1.1112 1.1112,2.54 0.37042,1.3758 0.37042,3.7042 v 5.4504 z m 4.7096,-6.4029 q 0,-1.905 -0.58208,-2.7517 -0.52917,-0.89959 -1.7462,-0.89959 -2.3812,0 -2.3812,3.6512 v 2.4342 h 4.7096 z"
         id="path15"
         style="stroke:url(#linearGradient26126);stroke-opacity:1" /><path
         d="m 150.28,209.46 -2.7517,-15.028 -2.5929,15.028 h -4.1804 l -4.8154,-26.3 h 4.4979 l 2.54,15.346 2.6458,-15.346 h 3.7571 l 2.8575,14.975 2.4342,-14.975 h 4.3392 l -4.4979,26.3 z"
         id="path17"
         style="stroke:url(#linearGradient26128);stroke-opacity:1" /><path
         d="m 171.13,209.46 h -5.2917 v -30.374 h -5.6092 v -4.9212 h 16.616 v 4.9212 h -5.715 z"
         id="path19"
         style="stroke:url(#linearGradient26130);stroke-opacity:1" /><path
         d="m 191.24,209.46 h -4.7625 v -2.8575 q -0.84667,0.89958 -1.5346,1.5346 -0.68791,0.635 -1.3229,1.0054 -0.63501,0.37042 -1.27,0.52917 -0.63499,0.15875 -1.3229,0.15875 -1.7462,0 -2.6458,-1.2171 -0.52916,-0.74083 -0.68791,-1.6933 -0.15875,-0.95247 -0.15875,-3.2808 v -20.479 h 4.7625 v 19.368 q 0,1.1642 0,1.5346 0.0529,0.37041 0.15875,0.635 0.15875,0.79375 1.0054,0.79375 1.4288,0 3.0162,-2.2225 v -20.108 h 4.7625 z"
         id="path21"
         style="stroke:url(#linearGradient26132);stroke-opacity:1" /><path
         d="m 209.13,174.16 v 35.295 h -4.7625 v -2.54 c -0.88193,1.05833 -1.69333,1.8168 -2.4342,2.2754 -0.7408,0.42333 -1.56983,0.635 -2.4871,0.635 -1.58747,0 -2.734,-0.70557 -3.4396,-2.1167 -0.17639,-0.35278 -0.3175,-0.70555 -0.42333,-1.0583 -0.10583,-0.35277 -0.19403,-0.75847 -0.26459,-1.2171 -0.0705,-0.45861 -0.12347,-0.98778 -0.15875,-1.5875 v -2.2754 -10.53 -2.2225 c 0.0353,-0.635 0.0882,-1.1818 0.15875,-1.6404 0.0706,-0.45861 0.15876,-0.86431 0.26459,-1.2171 0.10583,-0.35278 0.24694,-0.70555 0.42333,-1.0583 0.70553,-1.41113 1.85207,-2.1167 3.4396,-2.1167 0.36124,0 0.7088,0.0356 1.04268,0.10671 0.51387,0.10948 0.99534,0.30322 1.44442,0.58121 0.7408,0.42333 1.5522,1.16417 2.4342,2.2225 v -4.11475 -7.42125 z m -4.7625,14.129 c -0.8114,-0.77613 -1.60513,-1.1642 -2.3812,-1.1642 -0.84667,0 -1.4111,0.3175 -1.6933,0.9525 -0.17639,0.28223 -0.28222,0.61736 -0.3175,1.0054 -0.0353,0.35278 -0.0529,0.98778 -0.0529,1.905 v 10.636 c 0,0.9172 0.0176,1.5522 0.0529,1.905 0.0353,0.3528 0.1411,0.68793 0.3175,1.0054 0.28223,0.635 0.84666,0.9525 1.6933,0.9525 0.77613,0 1.56987,-0.38807 2.3812,-1.1642 z"
         id="path23"
         style="stroke:url(#linearGradient26134);stroke-opacity:1"
         sodipodi:nodetypes="cccccssssccccsscssccccccsccssscscc" /><path
         d="m 217.8,197.18 v 4.6567 q 0,3.6513 2.3283,3.6513 2.2225,0 2.2754,-2.9633 v -1.3229 l 0.0529,-0.84666 h 4.8154 v 1.2171 q 0,2.1696 -0.26458,3.2808 -0.26458,1.1112 -0.9525,2.1167 -0.9525,1.3758 -2.4871,2.1167 -1.5346,0.74084 -3.2808,0.74084 -1.6933,0 -3.2808,-0.74084 -1.5346,-0.74083 -2.4342,-1.9579 -0.84667,-1.1112 -1.2171,-2.54 -0.3175,-1.4288 -0.3175,-3.7042 v -9.1546 q 0,-2.3283 0.3175,-3.7042 0.37042,-1.4288 1.1642,-2.54 0.89958,-1.2171 2.4342,-1.9579 1.5346,-0.74084 3.2279,-0.74084 1.6933,0 3.175,0.74084 1.4817,0.68791 2.4342,1.9579 0.79375,1.1112 1.1112,2.54 0.37041,1.3758 0.37041,3.7042 v 5.4504 z m 4.7096,-6.4029 q 0,-1.905 -0.58208,-2.7517 -0.52917,-0.89959 -1.7462,-0.89959 -2.3812,0 -2.3812,3.6512 v 2.4342 h 4.7096 z"
         id="path25"
         style="stroke:url(#linearGradient26136);stroke-opacity:1" /></g><g
       aria-label="Broadcast Yourself™"
       id="text26200"
       style="font-size:3.70417px;font-family:'Alternate Gothic No2 D';-inkscape-font-specification:'Alternate Gothic No2 D';letter-spacing:0.0396875px;fill:#6e6e70;stroke-width:6.61501;stroke-miterlimit:1.6;paint-order:markers stroke fill"
       transform="translate(-0.91687894)"><path
         d="m 17.590449,115.97964 q 0,0.11033 -0.02894,0.20438 -0.02713,0.0922 -0.07777,0.1664 -0.05064,0.0742 -0.12299,0.13022 -0.07054,0.0561 -0.160972,0.0941 -0.08863,0.038 -0.19172,0.0579 -0.101286,0.0181 -0.233319,0.0181 h -0.611333 q -0.0416,0 -0.07958,-0.0271 -0.03617,-0.0289 -0.03617,-0.0995 v -2.08721 q 0,-0.0705 0.03617,-0.0977 0.03798,-0.0289 0.07958,-0.0289 h 0.531751 q 0.209806,0 0.343648,0.0398 0.133842,0.0398 0.222468,0.11576 0.09043,0.076 0.13565,0.18629 0.04522,0.11033 0.04522,0.2496 0,0.0832 -0.01989,0.15916 -0.0199,0.076 -0.05969,0.14108 -0.03798,0.0633 -0.09767,0.11394 -0.05788,0.0507 -0.133842,0.0832 0.09586,0.0181 0.179059,0.0669 0.0832,0.047 0.144694,0.12119 0.0633,0.0742 0.09948,0.17363 0.03617,0.0995 0.03617,0.21885 z m -0.468448,-1.04723 q 0,-0.085 -0.02351,-0.15373 -0.02351,-0.0687 -0.07416,-0.11576 -0.05064,-0.0488 -0.132033,-0.0742 -0.08139,-0.0253 -0.215233,-0.0253 h -0.321944 v 0.75784 h 0.3545 q 0.121182,0 0.195337,-0.0307 0.07416,-0.0326 0.12299,-0.085 0.04884,-0.0543 0.07054,-0.12479 0.02351,-0.0724 0.02351,-0.14832 z m 0.141077,1.06532 q 0,-0.10491 -0.03437,-0.18449 -0.03256,-0.0796 -0.09767,-0.13384 -0.0633,-0.0543 -0.160972,-0.0814 -0.09586,-0.0289 -0.242363,-0.0289 h -0.372587 v 0.82476 h 0.452169 q 0.106712,0 0.186293,-0.0253 0.07958,-0.0253 0.139269,-0.0742 0.0615,-0.0506 0.09586,-0.1248 0.03437,-0.0742 0.03437,-0.17182 z"
         style="font-family:Calibri;-inkscape-font-specification:Calibri;stroke-width:6.615"
         id="path27069" /><path
         d="m 19.0192,115.08434 q 0,0.0398 -0.0018,0.0669 -0.0018,0.0271 -0.0072,0.0434 -0.0054,0.0145 -0.01447,0.0235 -0.0072,0.007 -0.0217,0.007 -0.01447,0 -0.03617,-0.007 -0.0199,-0.009 -0.04703,-0.0163 -0.02532,-0.009 -0.05788,-0.0163 -0.03256,-0.007 -0.07054,-0.007 -0.04522,0 -0.08862,0.0181 -0.04341,0.0181 -0.09224,0.0597 -0.04702,0.0416 -0.09948,0.11033 -0.05245,0.0687 -0.115755,0.1682 v 1.07074 q 0,0.0145 -0.0072,0.0253 -0.0072,0.009 -0.02351,0.0163 -0.01628,0.007 -0.04522,0.0108 -0.02894,0.004 -0.07416,0.004 -0.04341,0 -0.07235,-0.004 -0.02894,-0.004 -0.04702,-0.0108 -0.01628,-0.007 -0.02351,-0.0163 -0.0054,-0.0108 -0.0054,-0.0253 v -1.62781 q 0,-0.0145 0.0054,-0.0235 0.0054,-0.0109 0.0217,-0.0181 0.01628,-0.009 0.0416,-0.0109 0.02532,-0.004 0.06692,-0.004 0.03979,0 0.06511,0.004 0.02713,0.002 0.0416,0.0109 0.01447,0.007 0.01989,0.0181 0.0072,0.009 0.0072,0.0235 v 0.23694 q 0.06692,-0.0977 0.124798,-0.15917 0.05969,-0.0615 0.112138,-0.0959 0.05245,-0.0362 0.103095,-0.0488 0.05245,-0.0145 0.104903,-0.0145 0.02351,0 0.05245,0.004 0.03075,0.002 0.0633,0.009 0.03256,0.007 0.05788,0.0163 0.02713,0.009 0.03798,0.0181 0.01085,0.009 0.01447,0.0181 0.0036,0.007 0.0054,0.0199 0.0036,0.0127 0.0036,0.038 0.0018,0.0235 0.0018,0.0651 z"
         style="font-family:Calibri;-inkscape-font-specification:Calibri;stroke-width:6.615"
         id="path27071" /><path
         d="m 20.853095,115.77345 q 0,0.19895 -0.05245,0.36716 -0.05245,0.1664 -0.157355,0.28758 -0.103094,0.12118 -0.260449,0.18991 -0.155546,0.0669 -0.361736,0.0669 -0.200763,0 -0.350883,-0.0597 -0.148311,-0.0597 -0.247789,-0.17364 -0.09948,-0.11394 -0.148311,-0.27672 -0.04883,-0.16279 -0.04883,-0.36897 0,-0.19896 0.05064,-0.36536 0.05245,-0.1682 0.155546,-0.28939 0.104903,-0.12118 0.260449,-0.1881 0.155546,-0.0669 0.363544,-0.0669 0.200763,0 0.349075,0.0597 0.15012,0.0597 0.249597,0.17363 0.09948,0.11395 0.148312,0.27673 0.05064,0.16278 0.05064,0.36716 z m -0.31471,0.0199 q 0,-0.13203 -0.02532,-0.24959 -0.02351,-0.11757 -0.07958,-0.20619 -0.05607,-0.0886 -0.151929,-0.13927 -0.09586,-0.0524 -0.238745,-0.0524 -0.132034,0 -0.227894,0.047 -0.09405,0.047 -0.155546,0.13385 -0.0615,0.085 -0.09224,0.20257 -0.02894,0.11756 -0.02894,0.25683 0,0.13384 0.02351,0.25141 0.02532,0.11756 0.08139,0.20619 0.05788,0.0868 0.153738,0.13926 0.09586,0.0507 0.238745,0.0507 0.130225,0 0.226084,-0.047 0.09586,-0.047 0.157355,-0.13203 0.0615,-0.085 0.09043,-0.20257 0.02894,-0.11757 0.02894,-0.25865 z"
         style="font-family:Calibri;-inkscape-font-specification:Calibri;stroke-width:6.615"
         id="path27073" /><path
         d="m 22.558574,116.60725 q 0,0.0217 -0.01447,0.0326 -0.01447,0.0109 -0.03979,0.0163 -0.02532,0.005 -0.07416,0.005 -0.04703,0 -0.07597,-0.005 -0.02713,-0.005 -0.03979,-0.0163 -0.01266,-0.0109 -0.01266,-0.0326 v -0.16278 q -0.106712,0.11395 -0.238746,0.17725 -0.130224,0.0633 -0.276727,0.0633 -0.128416,0 -0.233319,-0.0344 -0.103095,-0.0326 -0.177251,-0.0959 -0.07235,-0.0633 -0.113946,-0.15555 -0.03979,-0.0922 -0.03979,-0.2098 0,-0.13746 0.05607,-0.23875 0.05607,-0.10129 0.160972,-0.16821 0.104903,-0.0669 0.256832,-0.0995 0.151929,-0.0344 0.34184,-0.0344 h 0.224276 v -0.12661 q 0,-0.0941 -0.0199,-0.16639 -0.0199,-0.0724 -0.06511,-0.11938 -0.04341,-0.0488 -0.113947,-0.0723 -0.07054,-0.0253 -0.173633,-0.0253 -0.110329,0 -0.198954,0.0271 -0.08682,0.0253 -0.153738,0.0579 -0.06511,0.0308 -0.110329,0.0579 -0.04341,0.0253 -0.06511,0.0253 -0.01447,0 -0.02532,-0.007 -0.01085,-0.007 -0.01989,-0.0217 -0.0072,-0.0145 -0.01085,-0.0362 -0.0036,-0.0235 -0.0036,-0.0506 0,-0.0452 0.0054,-0.0705 0.0072,-0.0271 0.03075,-0.0507 0.02532,-0.0235 0.08501,-0.0543 0.05969,-0.0326 0.137459,-0.0579 0.07777,-0.0271 0.170016,-0.0434 0.09224,-0.0181 0.186294,-0.0181 0.175441,0 0.298431,0.0398 0.12299,0.0398 0.198955,0.11757 0.07596,0.076 0.110329,0.18991 0.03437,0.11394 0.03437,0.26587 z m -0.296623,-0.74337 h -0.255024 q -0.12299,0 -0.213423,0.0217 -0.09043,0.0199 -0.150121,0.0615 -0.05969,0.0398 -0.08863,0.0977 -0.02713,0.0561 -0.02713,0.13023 0,0.1266 0.07958,0.20257 0.08139,0.0742 0.226084,0.0742 0.117564,0 0.217042,-0.0597 0.101286,-0.0597 0.211615,-0.18268 z"
         style="font-family:Calibri;-inkscape-font-specification:Calibri;stroke-width:6.615"
         id="path27075" /><path
         d="m 24.54078,116.60544 q 0,0.0145 -0.0072,0.0253 -0.0054,0.0109 -0.0217,0.0181 -0.01447,0.005 -0.03979,0.009 -0.02532,0.004 -0.0615,0.004 -0.03798,0 -0.0633,-0.004 -0.02532,-0.004 -0.0416,-0.009 -0.01628,-0.007 -0.02351,-0.0181 -0.0072,-0.0108 -0.0072,-0.0253 v -0.21523 q -0.128416,0.13927 -0.267684,0.21704 -0.137459,0.0778 -0.302049,0.0778 -0.179059,0 -0.305666,-0.0687 -0.126607,-0.0705 -0.206189,-0.1881 -0.07777,-0.11937 -0.113947,-0.27854 -0.03617,-0.16097 -0.03617,-0.33822 0,-0.2098 0.04522,-0.37801 0.04522,-0.17002 0.133842,-0.28939 0.08863,-0.11937 0.218849,-0.18268 0.132034,-0.0651 0.303858,-0.0651 0.142886,0 0.26045,0.0633 0.119372,0.0615 0.235128,0.18268 v -0.94594 q 0,-0.0127 0.0054,-0.0235 0.0072,-0.0127 0.02532,-0.0181 0.01809,-0.007 0.04522,-0.0109 0.02894,-0.005 0.07235,-0.005 0.04522,0 0.07416,0.005 0.02894,0.004 0.04522,0.0109 0.01628,0.005 0.02351,0.0181 0.009,0.0109 0.009,0.0235 z m -0.30024,-1.14489 q -0.121182,-0.15012 -0.235128,-0.22789 -0.112138,-0.0796 -0.235128,-0.0796 -0.113947,0 -0.193529,0.0543 -0.07958,0.0543 -0.130224,0.14289 -0.04884,0.0886 -0.07235,0.20076 -0.0217,0.11214 -0.0217,0.2279 0,0.12299 0.01809,0.24055 0.0199,0.11756 0.06692,0.20981 0.04703,0.0904 0.124799,0.1465 0.07777,0.0543 0.195337,0.0543 0.05969,0 0.113947,-0.0163 0.05607,-0.0163 0.113946,-0.0543 0.05788,-0.038 0.121182,-0.0977 0.0633,-0.0615 0.133842,-0.15012 z"
         style="font-family:Calibri;-inkscape-font-specification:Calibri;stroke-width:6.615"
         id="path27077" /><path
         d="m 26.302328,116.35765 q 0,0.0307 -0.0018,0.0543 -0.0018,0.0217 -0.0072,0.038 -0.0036,0.0145 -0.01085,0.0271 -0.0054,0.0109 -0.02894,0.0344 -0.0217,0.0217 -0.07597,0.0561 -0.05426,0.0326 -0.12299,0.0597 -0.06692,0.0253 -0.146502,0.0416 -0.07958,0.0163 -0.16459,0.0163 -0.175442,0 -0.311092,-0.0579 -0.135651,-0.0579 -0.227894,-0.1682 -0.09043,-0.11214 -0.139268,-0.27311 -0.04703,-0.16278 -0.04703,-0.3744 0,-0.24055 0.05788,-0.41238 0.05969,-0.17363 0.160973,-0.28396 0.103094,-0.11033 0.240554,-0.16278 0.139268,-0.0543 0.30024,-0.0543 0.07777,0 0.15012,0.0145 0.07416,0.0145 0.135651,0.038 0.06149,0.0235 0.10852,0.0543 0.04884,0.0307 0.07054,0.0524 0.0217,0.0217 0.02894,0.0344 0.009,0.0127 0.01447,0.0308 0.0054,0.0163 0.0072,0.038 0.0018,0.0217 0.0018,0.0543 0,0.0705 -0.01628,0.0995 -0.01628,0.0271 -0.03979,0.0271 -0.02713,0 -0.0633,-0.0289 -0.03437,-0.0307 -0.08863,-0.0669 -0.05426,-0.0362 -0.132034,-0.0651 -0.07596,-0.0307 -0.180867,-0.0307 -0.215233,0 -0.330988,0.16639 -0.113947,0.16459 -0.113947,0.4793 0,0.15736 0.02894,0.27673 0.03075,0.11757 0.08863,0.19715 0.05788,0.0796 0.141077,0.11937 0.08501,0.038 0.193528,0.038 0.103095,0 0.180868,-0.0326 0.07777,-0.0326 0.133842,-0.0705 0.05788,-0.0398 0.09586,-0.0705 0.03979,-0.0326 0.0615,-0.0326 0.01266,0 0.0217,0.007 0.009,0.007 0.01447,0.0253 0.0072,0.0163 0.009,0.0434 0.0036,0.0253 0.0036,0.0615 z"
         style="font-family:Calibri;-inkscape-font-specification:Calibri;stroke-width:6.615"
         id="path27079" /><path
         d="m 27.933651,116.60725 q 0,0.0217 -0.01447,0.0326 -0.01447,0.0109 -0.03979,0.0163 -0.02532,0.005 -0.07416,0.005 -0.04703,0 -0.07597,-0.005 -0.02713,-0.005 -0.03979,-0.0163 -0.01266,-0.0109 -0.01266,-0.0326 v -0.16278 q -0.106712,0.11395 -0.238746,0.17725 -0.130225,0.0633 -0.276727,0.0633 -0.128416,0 -0.23332,-0.0344 -0.103094,-0.0326 -0.17725,-0.0959 -0.07235,-0.0633 -0.113947,-0.15555 -0.03979,-0.0922 -0.03979,-0.2098 0,-0.13746 0.05607,-0.23875 0.05607,-0.10129 0.160973,-0.16821 0.104903,-0.0669 0.256832,-0.0995 0.151929,-0.0344 0.34184,-0.0344 h 0.224276 v -0.12661 q 0,-0.0941 -0.0199,-0.16639 -0.0199,-0.0724 -0.06511,-0.11938 -0.04341,-0.0488 -0.113947,-0.0723 -0.07054,-0.0253 -0.173633,-0.0253 -0.110329,0 -0.198954,0.0271 -0.08682,0.0253 -0.153738,0.0579 -0.06511,0.0308 -0.110329,0.0579 -0.04341,0.0253 -0.06511,0.0253 -0.01447,0 -0.02532,-0.007 -0.01085,-0.007 -0.0199,-0.0217 -0.0072,-0.0145 -0.01085,-0.0362 -0.0036,-0.0235 -0.0036,-0.0506 0,-0.0452 0.0054,-0.0705 0.0072,-0.0271 0.03075,-0.0507 0.02532,-0.0235 0.08501,-0.0543 0.05969,-0.0326 0.137459,-0.0579 0.07777,-0.0271 0.170016,-0.0434 0.09224,-0.0181 0.186293,-0.0181 0.175442,0 0.298432,0.0398 0.12299,0.0398 0.198954,0.11757 0.07597,0.076 0.11033,0.18991 0.03437,0.11394 0.03437,0.26587 z m -0.296623,-0.74337 h -0.255024 q -0.12299,0 -0.213424,0.0217 -0.09043,0.0199 -0.15012,0.0615 -0.05969,0.0398 -0.08863,0.0977 -0.02713,0.0561 -0.02713,0.13023 0,0.1266 0.07958,0.20257 0.08139,0.0742 0.226084,0.0742 0.117564,0 0.217041,-0.0597 0.101286,-0.0597 0.211616,-0.18268 z"
         style="font-family:Calibri;-inkscape-font-specification:Calibri;stroke-width:6.615"
         id="path27081" /><path
         d="m 29.54327,116.16231 q 0,0.1248 -0.04703,0.22247 -0.04522,0.0977 -0.130225,0.16459 -0.08501,0.0669 -0.202572,0.10129 -0.117564,0.0344 -0.258641,0.0344 -0.08682,0 -0.166398,-0.0145 -0.07777,-0.0127 -0.141077,-0.0326 -0.0615,-0.0217 -0.104903,-0.0434 -0.04341,-0.0235 -0.0633,-0.0416 -0.01989,-0.0181 -0.02894,-0.0506 -0.009,-0.0326 -0.009,-0.0886 0,-0.0344 0.0036,-0.0579 0.0036,-0.0235 0.009,-0.038 0.0054,-0.0145 0.01447,-0.0199 0.01085,-0.007 0.02351,-0.007 0.0199,0 0.05788,0.0253 0.03979,0.0235 0.09586,0.0524 0.05788,0.0289 0.13565,0.0543 0.07777,0.0235 0.179059,0.0235 0.07597,0 0.13746,-0.0163 0.0615,-0.0163 0.106712,-0.047 0.04522,-0.0326 0.06873,-0.0814 0.02532,-0.0488 0.02532,-0.11575 0,-0.0687 -0.03617,-0.11576 -0.03436,-0.047 -0.09224,-0.0832 -0.05788,-0.0362 -0.130225,-0.0633 -0.07235,-0.0289 -0.15012,-0.0597 -0.07596,-0.0307 -0.15012,-0.0687 -0.07235,-0.0398 -0.130225,-0.0959 -0.05788,-0.0561 -0.09405,-0.13384 -0.03437,-0.0778 -0.03437,-0.18629 0,-0.0959 0.03617,-0.18268 0.03798,-0.0886 0.112138,-0.15374 0.07415,-0.0669 0.184485,-0.10671 0.112138,-0.0398 0.260449,-0.0398 0.06511,0 0.130225,0.0108 0.06511,0.0109 0.117564,0.0271 0.05245,0.0163 0.08863,0.0362 0.03798,0.0181 0.05607,0.0326 0.0199,0.0145 0.02532,0.0253 0.0072,0.0109 0.009,0.0253 0.0036,0.0127 0.0054,0.0326 0.0036,0.0199 0.0036,0.0488 0,0.0307 -0.0036,0.0543 -0.0018,0.0217 -0.009,0.0362 -0.0054,0.0145 -0.01447,0.0217 -0.009,0.005 -0.01989,0.005 -0.01628,0 -0.04703,-0.0199 -0.03075,-0.0199 -0.07958,-0.0416 -0.04883,-0.0235 -0.115755,-0.0434 -0.06511,-0.0199 -0.15012,-0.0199 -0.07597,0 -0.133842,0.0181 -0.05788,0.0163 -0.09586,0.0488 -0.03617,0.0307 -0.05607,0.0742 -0.01809,0.0434 -0.01809,0.0941 0,0.0705 0.03617,0.11937 0.03617,0.047 0.09405,0.0832 0.05788,0.0362 0.132033,0.0651 0.07416,0.0289 0.15012,0.0597 0.07777,0.0307 0.151929,0.0687 0.07597,0.038 0.133842,0.0922 0.05788,0.0543 0.09224,0.13023 0.03617,0.076 0.03617,0.18086 z"
         style="font-family:Calibri;-inkscape-font-specification:Calibri;stroke-width:6.615"
         id="path27083" /><path
         d="m 30.814666,116.48607 q 0,0.0525 -0.0072,0.0832 -0.0072,0.0307 -0.0217,0.0452 -0.01447,0.0145 -0.04341,0.0271 -0.02894,0.0127 -0.06692,0.0199 -0.03617,0.009 -0.07777,0.0145 -0.0416,0.005 -0.0832,0.005 -0.126608,0 -0.217042,-0.0326 -0.09043,-0.0344 -0.148311,-0.10129 -0.05788,-0.0687 -0.08501,-0.17182 -0.02532,-0.1049 -0.02532,-0.24598 v -0.95137 H 29.81085 q -0.02713,0 -0.04341,-0.0289 -0.01628,-0.0289 -0.01628,-0.0941 0,-0.0344 0.0036,-0.0579 0.0054,-0.0235 0.01266,-0.038 0.0072,-0.0163 0.01809,-0.0217 0.01266,-0.007 0.02713,-0.007 h 0.226085 v -0.38706 q 0,-0.0127 0.0054,-0.0235 0.0072,-0.0109 0.02351,-0.0181 0.01809,-0.009 0.04703,-0.0127 0.02894,-0.004 0.07235,-0.004 0.04522,0 0.07416,0.004 0.02894,0.004 0.04522,0.0127 0.01628,0.007 0.02351,0.0181 0.0072,0.0109 0.0072,0.0235 v 0.38706 h 0.417805 q 0.01447,0 0.02532,0.007 0.01085,0.005 0.01809,0.0217 0.009,0.0145 0.01266,0.038 0.0036,0.0235 0.0036,0.0579 0,0.0651 -0.01628,0.0941 -0.01628,0.0289 -0.04341,0.0289 h -0.417805 v 0.90796 q 0,0.16821 0.04884,0.25502 0.05064,0.085 0.179059,0.085 0.0416,0 0.07415,-0.007 0.03256,-0.009 0.05788,-0.0181 0.02532,-0.009 0.04341,-0.0163 0.01809,-0.009 0.03256,-0.009 0.009,0 0.01628,0.005 0.009,0.004 0.01266,0.0163 0.0054,0.0127 0.009,0.0344 0.0036,0.0217 0.0036,0.0543 z"
         style="font-family:Calibri;-inkscape-font-specification:Calibri;stroke-width:6.615"
         id="path27085" /><path
         d="m 32.907098,115.74089 v 0.86274 q 0,0.0145 -0.0072,0.0253 -0.0072,0.0109 -0.02532,0.0181 -0.01809,0.005 -0.04883,0.009 -0.03075,0.005 -0.07416,0.005 -0.04522,0 -0.07596,-0.005 -0.02894,-0.004 -0.04883,-0.009 -0.01809,-0.007 -0.02532,-0.0181 -0.0072,-0.0109 -0.0072,-0.0253 v -0.86274 l -0.661976,-1.32033 q -0.01989,-0.0416 -0.02532,-0.0651 -0.0036,-0.0235 0.009,-0.0362 0.01447,-0.0127 0.04883,-0.0163 0.03617,-0.004 0.09586,-0.004 0.05426,0 0.08682,0.004 0.03436,0.004 0.05426,0.0109 0.01989,0.005 0.02894,0.0181 0.01085,0.0109 0.0199,0.0289 l 0.323753,0.67283 q 0.04522,0.0959 0.09043,0.20076 0.04522,0.10491 0.09224,0.21162 h 0.0036 q 0.0416,-0.1031 0.08501,-0.20438 0.04522,-0.1031 0.09043,-0.20257 l 0.325561,-0.67645 q 0.0054,-0.0181 0.01447,-0.0307 0.01085,-0.0127 0.02713,-0.0181 0.01809,-0.007 0.04883,-0.0109 0.03075,-0.004 0.07777,-0.004 0.06511,0 0.101286,0.005 0.03798,0.004 0.05245,0.0163 0.01447,0.0127 0.009,0.0362 -0.0036,0.0235 -0.02351,0.0633 z"
         style="font-family:Calibri;-inkscape-font-specification:Calibri;stroke-width:6.615"
         id="path27087" /><path
         d="m 35.207632,115.77345 q 0,0.19895 -0.05245,0.36716 -0.05245,0.1664 -0.157355,0.28758 -0.103094,0.12118 -0.260449,0.18991 -0.155546,0.0669 -0.361736,0.0669 -0.200763,0 -0.350883,-0.0597 -0.148311,-0.0597 -0.247789,-0.17364 -0.09948,-0.11394 -0.148311,-0.27672 -0.04883,-0.16279 -0.04883,-0.36897 0,-0.19896 0.05064,-0.36536 0.05245,-0.1682 0.155546,-0.28939 0.104903,-0.12118 0.260449,-0.1881 0.155546,-0.0669 0.363544,-0.0669 0.200763,0 0.349075,0.0597 0.15012,0.0597 0.249597,0.17363 0.09948,0.11395 0.148312,0.27673 0.05064,0.16278 0.05064,0.36716 z m -0.31471,0.0199 q 0,-0.13203 -0.02532,-0.24959 -0.02351,-0.11757 -0.07958,-0.20619 -0.05607,-0.0886 -0.151929,-0.13927 -0.09586,-0.0524 -0.238745,-0.0524 -0.132034,0 -0.227894,0.047 -0.09405,0.047 -0.155546,0.13385 -0.0615,0.085 -0.09224,0.20257 -0.02894,0.11756 -0.02894,0.25683 0,0.13384 0.02351,0.25141 0.02532,0.11756 0.08139,0.20619 0.05788,0.0868 0.153738,0.13926 0.09586,0.0507 0.238745,0.0507 0.130225,0 0.226084,-0.047 0.09586,-0.047 0.157355,-0.13203 0.0615,-0.085 0.09043,-0.20257 0.02894,-0.11757 0.02894,-0.25865 z"
         style="font-family:Calibri;-inkscape-font-specification:Calibri;stroke-width:6.615"
         id="path27089" /><path
         d="m 37.081318,116.60544 q 0,0.0145 -0.0072,0.0253 -0.0054,0.009 -0.0217,0.0163 -0.01628,0.007 -0.04341,0.0108 -0.02532,0.004 -0.0633,0.004 -0.0416,0 -0.06873,-0.004 -0.02532,-0.004 -0.0416,-0.0108 -0.01447,-0.007 -0.01989,-0.0163 -0.0054,-0.0108 -0.0054,-0.0253 v -0.21523 q -0.139268,0.15374 -0.274919,0.22427 -0.135651,0.0705 -0.274919,0.0705 -0.162781,0 -0.274919,-0.0543 -0.110329,-0.0543 -0.179059,-0.1465 -0.06873,-0.0941 -0.09948,-0.21704 -0.02894,-0.1248 -0.02894,-0.30205 v -0.98754 q 0,-0.0145 0.0054,-0.0235 0.0072,-0.0109 0.02532,-0.0181 0.01809,-0.009 0.04702,-0.0109 0.02894,-0.004 0.07235,-0.004 0.04341,0 0.07235,0.004 0.02894,0.002 0.04522,0.0109 0.01809,0.007 0.02532,0.0181 0.0072,0.009 0.0072,0.0235 v 0.94775 q 0,0.14288 0.0199,0.2297 0.0217,0.085 0.0633,0.1465 0.04341,0.0597 0.10852,0.094 0.06511,0.0326 0.151929,0.0326 0.112138,0 0.222467,-0.0796 0.112138,-0.0796 0.236937,-0.23332 v -1.13766 q 0,-0.0145 0.0054,-0.0235 0.0072,-0.0109 0.02532,-0.0181 0.01809,-0.009 0.04522,-0.0109 0.02894,-0.004 0.07416,-0.004 0.04341,0 0.07235,0.004 0.02894,0.002 0.04522,0.0109 0.01628,0.007 0.02351,0.0181 0.009,0.009 0.009,0.0235 z"
         style="font-family:Calibri;-inkscape-font-specification:Calibri;stroke-width:6.615"
         id="path27091" /><path
         d="m 38.624015,115.08434 q 0,0.0398 -0.0018,0.0669 -0.0018,0.0271 -0.0072,0.0434 -0.0054,0.0145 -0.01447,0.0235 -0.0072,0.007 -0.0217,0.007 -0.01447,0 -0.03617,-0.007 -0.0199,-0.009 -0.04703,-0.0163 -0.02532,-0.009 -0.05788,-0.0163 -0.03256,-0.007 -0.07054,-0.007 -0.04522,0 -0.08863,0.0181 -0.04341,0.0181 -0.09224,0.0597 -0.04702,0.0416 -0.09948,0.11033 -0.05245,0.0687 -0.115755,0.1682 v 1.07074 q 0,0.0145 -0.0072,0.0253 -0.0072,0.009 -0.02351,0.0163 -0.01628,0.007 -0.04522,0.0108 -0.02894,0.004 -0.07415,0.004 -0.04341,0 -0.07235,-0.004 -0.02894,-0.004 -0.04703,-0.0108 -0.01628,-0.007 -0.02351,-0.0163 -0.0054,-0.0108 -0.0054,-0.0253 v -1.62781 q 0,-0.0145 0.0054,-0.0235 0.0054,-0.0109 0.0217,-0.0181 0.01628,-0.009 0.0416,-0.0109 0.02532,-0.004 0.06692,-0.004 0.03979,0 0.06511,0.004 0.02713,0.002 0.0416,0.0109 0.01447,0.007 0.01989,0.0181 0.0072,0.009 0.0072,0.0235 v 0.23694 q 0.06692,-0.0977 0.124799,-0.15917 0.05969,-0.0615 0.112138,-0.0959 0.05245,-0.0362 0.103094,-0.0488 0.05245,-0.0145 0.104903,-0.0145 0.02351,0 0.05245,0.004 0.03075,0.002 0.0633,0.009 0.03256,0.007 0.05788,0.0163 0.02713,0.009 0.03798,0.0181 0.01085,0.009 0.01447,0.0181 0.0036,0.007 0.0054,0.0199 0.0036,0.0127 0.0036,0.038 0.0018,0.0235 0.0018,0.0651 z"
         style="font-family:Calibri;-inkscape-font-specification:Calibri;stroke-width:6.615"
         id="path27093" /><path
         d="m 39.962334,116.16231 q 0,0.1248 -0.04703,0.22247 -0.04522,0.0977 -0.130224,0.16459 -0.08501,0.0669 -0.202572,0.10129 -0.117564,0.0344 -0.258641,0.0344 -0.08682,0 -0.166398,-0.0145 -0.07777,-0.0127 -0.141077,-0.0326 -0.0615,-0.0217 -0.104903,-0.0434 -0.04341,-0.0235 -0.0633,-0.0416 -0.01989,-0.0181 -0.02894,-0.0506 -0.009,-0.0326 -0.009,-0.0886 0,-0.0344 0.0036,-0.0579 0.0036,-0.0235 0.009,-0.038 0.0054,-0.0145 0.01447,-0.0199 0.01085,-0.007 0.02351,-0.007 0.01989,0 0.05788,0.0253 0.03979,0.0235 0.09586,0.0524 0.05788,0.0289 0.135651,0.0543 0.07777,0.0235 0.179059,0.0235 0.07596,0 0.137459,-0.0163 0.0615,-0.0163 0.106712,-0.047 0.04522,-0.0326 0.06873,-0.0814 0.02532,-0.0488 0.02532,-0.11575 0,-0.0687 -0.03617,-0.11576 -0.03437,-0.047 -0.09224,-0.0832 -0.05788,-0.0362 -0.130224,-0.0633 -0.07235,-0.0289 -0.15012,-0.0597 -0.07596,-0.0307 -0.150121,-0.0687 -0.07235,-0.0398 -0.130224,-0.0959 -0.05788,-0.0561 -0.09405,-0.13384 -0.03436,-0.0778 -0.03436,-0.18629 0,-0.0959 0.03617,-0.18268 0.03798,-0.0886 0.112138,-0.15374 0.07416,-0.0669 0.184485,-0.10671 0.112138,-0.0398 0.26045,-0.0398 0.06511,0 0.130224,0.0108 0.06511,0.0109 0.117564,0.0271 0.05245,0.0163 0.08863,0.0362 0.03798,0.0181 0.05607,0.0326 0.0199,0.0145 0.02532,0.0253 0.0072,0.0109 0.009,0.0253 0.0036,0.0127 0.0054,0.0326 0.0036,0.0199 0.0036,0.0488 0,0.0307 -0.0036,0.0543 -0.0018,0.0217 -0.009,0.0362 -0.0054,0.0145 -0.01447,0.0217 -0.009,0.005 -0.0199,0.005 -0.01628,0 -0.04703,-0.0199 -0.03075,-0.0199 -0.07958,-0.0416 -0.04884,-0.0235 -0.115756,-0.0434 -0.06511,-0.0199 -0.15012,-0.0199 -0.07596,0 -0.133842,0.0181 -0.05788,0.0163 -0.09586,0.0488 -0.03617,0.0307 -0.05607,0.0742 -0.01809,0.0434 -0.01809,0.0941 0,0.0705 0.03617,0.11937 0.03617,0.047 0.09405,0.0832 0.05788,0.0362 0.132034,0.0651 0.07415,0.0289 0.15012,0.0597 0.07777,0.0307 0.151929,0.0687 0.07596,0.038 0.133842,0.0922 0.05788,0.0543 0.09224,0.13023 0.03617,0.076 0.03617,0.18086 z"
         style="font-family:Calibri;-inkscape-font-specification:Calibri;stroke-width:6.615"
         id="path27095" /><path
         d="m 41.817931,115.721 q 0,0.0705 -0.03617,0.10128 -0.03436,0.0289 -0.07958,0.0289 h -1.06712 q 0,0.13565 0.02713,0.24417 0.02713,0.10852 0.09043,0.1863 0.0633,0.0778 0.16459,0.11937 0.101286,0.0416 0.247789,0.0416 0.115755,0 0.206189,-0.0181 0.09043,-0.0199 0.155546,-0.0434 0.06692,-0.0235 0.108521,-0.0416 0.04341,-0.0199 0.06511,-0.0199 0.01266,0 0.0217,0.007 0.01085,0.005 0.01628,0.0181 0.0054,0.0127 0.0072,0.0362 0.0036,0.0217 0.0036,0.0543 0,0.0235 -0.0018,0.0416 -0.0018,0.0163 -0.0054,0.0307 -0.0018,0.0127 -0.009,0.0235 -0.0054,0.0109 -0.01628,0.0217 -0.009,0.009 -0.05788,0.0326 -0.04883,0.0217 -0.126607,0.0434 -0.07777,0.0217 -0.180868,0.038 -0.101286,0.0181 -0.217041,0.0181 -0.200763,0 -0.352692,-0.0561 -0.15012,-0.0561 -0.253215,-0.16639 -0.103094,-0.11033 -0.155546,-0.27673 -0.05245,-0.1664 -0.05245,-0.38706 0,-0.20981 0.05426,-0.3762 0.05426,-0.16821 0.155546,-0.28397 0.103095,-0.11756 0.247789,-0.17906 0.144694,-0.0633 0.323753,-0.0633 0.19172,0 0.325562,0.0615 0.135651,0.0615 0.222467,0.16639 0.08682,0.1031 0.126607,0.24418 0.0416,0.13926 0.0416,0.29843 z m -0.30024,-0.0886 q 0.0054,-0.23513 -0.104904,-0.36897 -0.10852,-0.13384 -0.323753,-0.13384 -0.110329,0 -0.193528,0.0416 -0.0832,0.0416 -0.139268,0.11033 -0.05607,0.0687 -0.08682,0.16097 -0.03075,0.0904 -0.03437,0.18991 z"
         style="font-family:Calibri;-inkscape-font-specification:Calibri;stroke-width:6.615"
         id="path27097" /><path
         d="m 42.610029,116.60544 q 0,0.0145 -0.0072,0.0253 -0.0072,0.009 -0.02351,0.0163 -0.01628,0.007 -0.04522,0.0108 -0.02894,0.004 -0.07416,0.004 -0.04341,0 -0.07235,-0.004 -0.02894,-0.004 -0.04703,-0.0108 -0.01628,-0.007 -0.02351,-0.0163 -0.0054,-0.0108 -0.0054,-0.0253 v -2.41639 q 0,-0.0145 0.0054,-0.0253 0.0072,-0.0109 0.02351,-0.0181 0.01809,-0.007 0.04703,-0.0109 0.02894,-0.004 0.07235,-0.004 0.04522,0 0.07416,0.004 0.02894,0.004 0.04522,0.0109 0.01628,0.007 0.02351,0.0181 0.0072,0.0109 0.0072,0.0253 z"
         style="font-family:Calibri;-inkscape-font-specification:Calibri;stroke-width:6.615"
         id="path27099" /><path
         d="m 44.09304,114.30842 q 0,0.0344 -0.0036,0.0561 -0.0036,0.0199 -0.009,0.0326 -0.0036,0.0127 -0.01085,0.0181 -0.0072,0.004 -0.01809,0.004 -0.01266,0 -0.03256,-0.007 -0.01809,-0.009 -0.04522,-0.0181 -0.02713,-0.0108 -0.06511,-0.0181 -0.03617,-0.009 -0.08501,-0.009 -0.06692,0 -0.113946,0.0217 -0.04703,0.0217 -0.07596,0.0687 -0.02894,0.0452 -0.0416,0.11938 -0.01266,0.0723 -0.01266,0.17725 v 0.17725 h 0.363544 q 0.01447,0 0.02351,0.007 0.01085,0.005 0.01809,0.0217 0.009,0.0145 0.01266,0.038 0.0054,0.0235 0.0054,0.0579 0,0.0651 -0.01628,0.0941 -0.01628,0.0289 -0.04341,0.0289 h -0.363544 v 1.42705 q 0,0.0145 -0.0072,0.0253 -0.0072,0.009 -0.02532,0.0163 -0.01628,0.007 -0.04522,0.0108 -0.02894,0.004 -0.07235,0.004 -0.04341,0 -0.07235,-0.004 -0.02894,-0.004 -0.04703,-0.0108 -0.01628,-0.007 -0.02351,-0.0163 -0.0072,-0.0108 -0.0072,-0.0253 v -1.42705 h -0.229702 q -0.02894,0 -0.04341,-0.0289 -0.01447,-0.0289 -0.01447,-0.0941 0,-0.0344 0.0036,-0.0579 0.0036,-0.0235 0.01085,-0.038 0.0072,-0.0163 0.01809,-0.0217 0.01085,-0.007 0.02532,-0.007 h 0.229702 v -0.16821 q 0,-0.17002 0.03075,-0.2912 0.03256,-0.12299 0.09767,-0.20076 0.06511,-0.0778 0.162781,-0.11395 0.09948,-0.038 0.233319,-0.038 0.0633,0 0.12299,0.0127 0.05969,0.0109 0.09224,0.0253 0.03256,0.0127 0.04341,0.0235 0.01085,0.0109 0.01809,0.0289 0.0072,0.0163 0.009,0.0416 0.0036,0.0235 0.0036,0.0579 z"
         style="font-family:Calibri;-inkscape-font-specification:Calibri;stroke-width:6.615"
         id="path27101" /><path
         d="m 45.020788,114.4079 q 0,0.0235 -0.0036,0.0416 -0.0018,0.0163 -0.0072,0.0289 -0.0054,0.0108 -0.01266,0.0163 -0.0072,0.005 -0.01628,0.005 h -0.255023 v 0.82114 q 0,0.009 -0.0054,0.0145 -0.0054,0.005 -0.01809,0.0108 -0.01266,0.005 -0.03437,0.009 -0.01989,0.002 -0.05245,0.002 -0.03256,0 -0.05426,-0.002 -0.0217,-0.004 -0.03436,-0.009 -0.01266,-0.005 -0.0199,-0.0108 -0.0054,-0.005 -0.0054,-0.0145 v -0.82114 h -0.249597 q -0.01085,0 -0.01809,-0.005 -0.0072,-0.005 -0.01447,-0.0163 -0.0054,-0.0127 -0.009,-0.0289 -0.0018,-0.0181 -0.0018,-0.0416 0,-0.0253 0.0018,-0.0434 0.0036,-0.0199 0.009,-0.0307 0.0072,-0.0127 0.01447,-0.0181 0.0072,-0.005 0.01809,-0.005 h 0.728896 q 0.009,0 0.01628,0.005 0.0072,0.005 0.01266,0.0181 0.0054,0.0108 0.0072,0.0307 0.0036,0.0181 0.0036,0.0434 z m 1.407151,0.91338 q 0,0.009 -0.0054,0.0145 -0.0036,0.005 -0.01447,0.0108 -0.01085,0.005 -0.03075,0.009 -0.0199,0.002 -0.05064,0.002 -0.03256,0 -0.05245,-0.002 -0.01809,-0.004 -0.03075,-0.009 -0.01085,-0.005 -0.01447,-0.0108 -0.0036,-0.005 -0.0036,-0.0145 v -0.80667 h -0.0036 l -0.302049,0.8139 q -0.0036,0.0145 -0.03256,0.0217 -0.02713,0.007 -0.07596,0.007 -0.04341,0 -0.06873,-0.007 -0.02532,-0.007 -0.03075,-0.0217 l -0.294815,-0.8139 h -0.0036 v 0.80667 q 0,0.009 -0.0054,0.0145 -0.0036,0.005 -0.01628,0.0108 -0.01085,0.005 -0.03075,0.009 -0.01809,0.002 -0.04702,0.002 -0.03256,0 -0.05245,-0.002 -0.01989,-0.004 -0.03256,-0.009 -0.01085,-0.005 -0.01628,-0.0108 -0.0036,-0.005 -0.0036,-0.0145 v -0.92604 q 0,-0.0398 0.02351,-0.0615 0.02351,-0.0235 0.05788,-0.0235 h 0.137459 q 0.03617,0 0.0615,0.007 0.02532,0.005 0.04341,0.0199 0.0199,0.0145 0.03256,0.0398 0.01447,0.0235 0.02713,0.0597 l 0.226085,0.62218 0.240554,-0.62218 q 0.02351,-0.0633 0.05607,-0.0941 0.03436,-0.0326 0.09767,-0.0326 h 0.133842 q 0.03617,0 0.05788,0.0235 0.02351,0.0217 0.02351,0.0615 z"
         style="font-family:Calibri;-inkscape-font-specification:Calibri;stroke-width:6.615"
         id="path27103" /></g></g></svg>
